<svg width="135" height="96" viewBox="0 0 135 96" fill="none" xmlns="http://www.w3.org/2000/svg">
<path d="M40.3935 28.8525H19.235V40.3935H30.9508C34.4481 50.3607 45.4645 67.1476 65.3989 67.1476C93.9017 67.1476 101.421 45.9892 102.645 40.3935H115.41V28.8525H93.9017C93.9017 37.9454 89.9283 56.8088 66.9727 56.3061C43.0164 55.7815 39.3443 33.2241 40.3935 28.8525Z" fill="#71286F"/>
<path d="M54.0328 28.8525H43.8907C43.8907 36.0219 49.0667 50.9902 66.2732 52.1094C83.4798 53.2285 91.9782 36.5465 89.8798 28.8525H79.7377C79.7377 34.623 75.6639 41.7924 66.9727 41.7924C57.8798 41.7924 54.2077 32.8744 54.0328 28.8525Z" fill="#71286F"/>
</svg>
