<svg width="80" height="18" viewBox="0 0 80 18" fill="none" xmlns="http://www.w3.org/2000/svg">
<path d="M22.2991 0C23.8013 0 25.3035 0 26.8512 0C26.8512 1.30062 26.8512 2.60124 26.8512 3.94128C27.313 3.93366 27.7749 3.92604 28.2507 3.91819C30.3215 3.91009 32.4377 3.99921 34.1124 5.3774C35.7602 7.14396 35.6593 9.70508 35.6025 11.9536C35.5289 13.6001 35.1925 15.2435 33.9715 16.4348C30.951 18.8712 25.1844 17.7358 22.2991 17.7358C22.2991 11.883 22.2991 6.03016 22.2991 0Z" fill="#722D71"/>
<path d="M44.5675 3.94128C47.2065 3.94128 49.8454 3.94128 52.5644 3.94128C52.6253 4.79481 52.6253 4.79481 52.6874 5.66559C52.7599 6.02891 52.8316 6.35576 52.9412 6.70479C52.968 6.79167 52.9947 6.87855 53.0223 6.96805C53.5586 8.6154 54.4066 9.88265 55.6401 11.0848C55.7237 11.1682 55.8073 11.2516 55.8934 11.3374C57.5991 12.9385 59.9559 13.7398 62.2703 13.7148C64.9558 13.6245 67.4949 12.602 69.3727 10.6558C71.1447 8.70609 71.7467 6.50743 72.0031 3.94128C74.6421 3.94128 77.281 3.94128 80 3.94128C80 5.32319 80 6.7051 80 8.12889C78.4572 8.12889 76.9144 8.12889 75.3249 8.12889C75.2031 8.49469 75.0813 8.86049 74.9558 9.23737C74.8106 9.56669 74.6638 9.88671 74.5021 10.2073C74.4593 10.2923 74.4165 10.3772 74.3723 10.4648C73.1604 12.8083 71.2153 14.7294 68.9273 16.0114C68.8279 16.0681 68.7285 16.1248 68.626 16.1832C65.4595 17.8785 61.7445 18.2465 58.3103 17.2118C56.4888 16.6263 54.9086 15.7392 53.4256 14.5335C53.3362 14.4628 53.2467 14.3922 53.1546 14.3194C52.4478 13.7358 51.8908 13.0415 51.3341 12.3165C51.2592 12.2203 51.1844 12.1241 51.1073 12.0249C50.6527 11.4106 50.288 10.7638 49.9423 10.0841C49.9008 10.0032 49.8592 9.92229 49.8164 9.83892C49.7772 9.75948 49.7381 9.68005 49.6977 9.59821C49.6632 9.52865 49.6288 9.45909 49.5933 9.38742C49.4376 8.98075 49.3481 8.55141 49.2426 8.12889C47.6998 8.12889 46.157 8.12889 44.5675 8.12889C44.5675 6.74698 44.5675 5.36507 44.5675 3.94128Z" fill="#722C70"/>
<path d="M9.13491 4.06438C10.2868 4.05601 11.4386 4.04924 12.5905 4.04524C13.1255 4.04331 13.6604 4.04071 14.1954 4.03651C14.7123 4.03247 15.2292 4.03028 15.7461 4.02933C15.9427 4.02865 16.1392 4.02732 16.3357 4.02532C18.2896 4.00619 18.2896 4.00619 19.2233 4.43388C19.3128 4.47082 19.4022 4.50777 19.4943 4.54584C20.408 4.93336 20.8719 5.57018 21.2764 6.4584C21.8715 8.03526 21.9963 9.63537 21.9916 11.3044C21.9915 11.6098 21.9967 11.9149 22.0021 12.2202C22.0131 13.7041 21.766 14.9842 20.7934 16.1663C19.847 17.1032 18.6372 17.3554 17.3779 17.6125C17.2654 17.6365 17.153 17.6605 17.0372 17.6852C14.7973 17.9699 12.3074 17.8776 10.3652 16.6272C9.30231 15.7887 8.85874 14.7378 8.64279 13.4249C8.516 11.769 8.75661 10.2913 9.838 8.98184C11.3513 7.50527 13.6482 7.47235 15.6247 7.49761C15.7958 7.49885 15.9669 7.49997 16.138 7.50097C16.5513 7.50385 16.9646 7.50788 17.3779 7.513C17.2255 6.79681 17.2255 6.79681 16.7627 6.28135C15.6736 5.88083 14.4876 5.89347 13.34 5.87289C13.1583 5.86905 13.1583 5.86905 12.9729 5.86513C12.5907 5.85716 12.2084 5.84986 11.8262 5.84258C11.5651 5.83725 11.3039 5.83188 11.0428 5.82646C10.4069 5.81336 9.77089 5.80086 9.13491 5.78869C9.13491 5.21967 9.13491 4.65065 9.13491 4.06438Z" fill="#722B70"/>
<path d="M0.0305881 0C1.49218 0 2.95377 0 4.45965 0C4.45965 1.34127 4.45965 2.68253 4.45965 4.06444C5.39345 4.06444 6.32724 4.06444 7.28933 4.06444C7.28933 4.63347 7.28933 5.20249 7.28933 5.78875C6.35554 5.78875 5.42175 5.78875 4.45965 5.78875C4.46741 6.91406 4.4767 8.03932 4.48865 9.16459C4.49415 9.68715 4.49898 10.2097 4.50228 10.7323C4.50549 11.237 4.51046 11.7417 4.51664 12.2464C4.51868 12.4385 4.5201 12.6307 4.52088 12.8228C4.52207 13.0929 4.52552 13.3628 4.52949 13.6329C4.53154 13.863 4.53154 13.863 4.53363 14.0978C4.60235 14.7082 4.74629 15.2243 5.23324 15.6303C5.62448 15.7884 5.93209 15.8181 6.35364 15.8281C6.50152 15.8325 6.64941 15.8369 6.80178 15.8414C7.0317 15.8455 7.0317 15.8455 7.26627 15.8498C7.42193 15.854 7.57758 15.8582 7.73796 15.8625C8.12151 15.8727 8.50511 15.8807 8.88872 15.8883C8.88872 16.4979 8.88872 17.1076 8.88872 17.7358C8.11203 17.748 7.3354 17.7569 6.55864 17.7628C6.29507 17.7653 6.0315 17.7686 5.76795 17.7729C2.37133 17.8269 2.37133 17.8269 1.13017 16.9044C0.723386 16.5052 0.481158 16.0466 0.276647 15.5188C0.213475 15.3724 0.213475 15.3724 0.149026 15.223C-0.0194409 14.5926 -0.00158664 13.9889 0.00265408 13.3392C0.00261815 13.1949 0.00258222 13.0506 0.0025452 12.902C0.00271633 12.4262 0.0046295 11.9504 0.00655883 11.4746C0.00701785 11.1442 0.00738017 10.8139 0.00761386 10.4836C0.00837745 9.70371 0.0103951 8.92381 0.0128671 8.14391C0.0156211 7.2557 0.0169712 6.36748 0.0182055 5.47926C0.0207747 3.65283 0.0252857 1.82642 0.0305881 0Z" fill="#712C6F"/>
<path d="M53.9178 3.94128C55.1358 3.94128 56.3538 3.94128 57.6087 3.94128C57.6747 4.24357 57.7407 4.54587 57.8086 4.85732C58.1193 6.15234 58.7046 7.12152 59.8232 7.88256C60.982 8.53997 62.128 8.68394 63.4296 8.40601C64.879 7.91414 65.7788 7.17292 66.4669 5.78875C66.6965 5.15377 66.7498 4.63097 66.8359 3.94128C68.0539 3.94128 69.2719 3.94128 70.5268 3.94128C70.5268 6.32887 69.739 8.1844 68.1244 9.92488C66.4547 11.5594 64.2989 12.3873 61.9784 12.3682C59.6396 12.2866 57.5868 11.2601 55.9786 9.56068C55.1188 8.54352 54.5931 7.39881 54.1793 6.14285C54.1528 6.06496 54.1262 5.98706 54.0989 5.90681C53.8799 5.19829 53.9178 4.7451 53.9178 3.94128Z" fill="#722C70"/>
<path d="M36.2015 3.94128C37.6631 3.94128 39.1246 3.94128 40.6305 3.94128C40.6305 8.49346 40.6305 13.0456 40.6305 17.7358C39.1689 17.7358 37.7073 17.7358 36.2015 17.7358C36.2015 13.1836 36.2015 8.6314 36.2015 3.94128Z" fill="#712B6F"/>
<path d="M30.0575 6.46616C30.7483 7.05472 31.019 7.85866 31.1571 8.74471C31.1878 9.28875 31.1925 9.83123 31.1892 10.3759C31.1879 10.6288 31.1892 10.8817 31.1907 11.1346C31.1921 12.3827 31.156 13.6642 30.5419 14.7798C29.9904 15.3174 29.4802 15.5296 28.7196 15.5727C28.0545 15.5558 27.5713 15.3777 27.0971 14.903C26.9127 14.585 26.8098 14.2749 26.728 13.9176C26.7069 13.8322 26.6859 13.7467 26.6642 13.6586C26.5871 13.1939 26.585 12.7352 26.5843 12.2655C26.5839 12.1657 26.5835 12.0659 26.5831 11.9631C26.5825 11.7521 26.5822 11.5411 26.5822 11.3302C26.5819 11.0115 26.5797 10.6929 26.5774 10.3742C26.5669 7.44956 26.5669 7.44956 27.4004 6.55757C28.0332 6.04491 29.355 6.11837 30.0575 6.46616Z" fill="#FCFCFC"/>
<path d="M16.4345 9.42786C17.0217 9.69933 17.1852 10.1636 17.4 10.729C17.5738 11.3418 17.5672 11.9377 17.5548 12.5705C17.5557 12.6966 17.5565 12.8228 17.5574 12.9527C17.5495 13.9117 17.4491 14.7584 16.832 15.5188C16.1754 16.0318 15.3485 15.9483 14.5483 15.8882C14.0215 15.7032 13.7242 15.5082 13.441 15.0261C13.2236 14.5618 13.1634 14.1957 13.1622 13.6843C13.1619 13.5462 13.1616 13.4082 13.1613 13.2659C13.1622 13.1228 13.1632 12.9797 13.1642 12.8322C13.1632 12.6905 13.1623 12.5488 13.1613 12.4028C13.1659 10.3749 13.1659 10.3749 13.9331 9.60683C14.6272 9.15523 15.6574 9.24541 16.4345 9.42786Z" fill="#FCFCFC"/>
<path d="M39.3618 0.685073C39.9127 0.955594 40.2511 1.28765 40.5075 1.84744C40.584 2.14346 40.6117 2.40217 40.6305 2.7096C40.0621 2.7096 39.4937 2.7096 38.9081 2.7096C38.8675 2.58766 38.8269 2.46573 38.7851 2.3401C38.5415 2.3401 38.2979 2.3401 38.0469 2.3401C38.0063 2.46204 37.9657 2.58397 37.9239 2.7096C37.3555 2.7096 36.7871 2.7096 36.2015 2.7096C36.2552 2.03728 36.3785 1.62578 36.8166 1.10845C37.631 0.421542 38.3742 0.308578 39.3618 0.685073Z" fill="#742D71"/>
</svg>
