<svg width="117" height="117" viewBox="0 0 117 117" fill="none" xmlns="http://www.w3.org/2000/svg">
<g clip-path="url(#clip0_1_5837)">
<path d="M74.2834 87.8455C76.2307 89.1572 77.8884 90.1157 79.3307 91.3158C80.0961 91.9545 81.0657 93.0472 80.9769 93.8315C80.884 94.6481 79.7548 95.6457 78.8592 96.0095C76.2411 97.0769 73.5108 97.9455 70.7931 98.7171C70.2058 98.8842 69.167 98.7295 68.7131 98.0721C68.1536 97.5193 69.3885 96.417 69.9844 96.1327C72.2667 95.0678 74.6653 94.2218 77.2223 93.2189C75.8556 92.2982 74.7024 91.5565 73.5696 90.7583C70.5464 88.6162 70.4639 86.4155 73.4753 84.2943C77.7327 81.2893 82.0744 78.3939 86.3841 75.4418C86.9036 75.0883 87.3988 74.7186 87.9022 74.3368C88.7499 73.8353 88.5527 73.6321 87.7591 73.8184C86.2364 74.1993 84.7098 74.5601 83.1872 74.941C80.482 75.6157 77.7809 76.3105 75.0718 76.9649C74.4603 77.1156 73.7807 77.1326 73.1897 77.2268C72.1495 77.3877 71.2873 76.6838 70.8899 76.0468C70.5527 75.5032 70.3381 74.7256 71.1521 73.6738C72.8815 71.498 74.7722 69.4483 76.6668 67.4189C80.9317 62.8365 85.2248 58.2906 89.3817 53.4771C87.347 54.3572 85.2881 55.2209 83.2816 56.1375C78.8429 58.1588 74.4523 60.2652 69.9897 62.2176C68.4615 62.8938 66.6887 63.9855 65.1678 62.3279C63.7394 60.7679 64.8354 59.1148 65.526 57.6458C67.7161 53.0373 70.0112 48.4818 72.2578 43.8937C72.4825 43.4296 72.6386 42.9369 73.0275 41.9681C70.1122 43.4506 67.5221 44.6071 65.1126 46.0435C60.0381 49.0608 55.0357 52.2321 50.0094 55.3345C46.6625 57.4055 44.9354 56.5761 44.6956 52.599C44.3878 47.6265 44.2541 42.6307 44.0273 37.6424C43.9832 36.716 43.8379 35.8092 43.6791 34.3483C43.0441 35.1866 42.6456 35.6215 42.3642 36.1176C39.1132 41.8051 35.8743 47.5007 32.6272 53.2084C31.7747 54.7089 31.1428 56.5867 29.1277 56.759C27.0195 56.939 26.2843 55.0547 25.3326 53.6223C24.3488 52.1332 23.4218 50.6119 22.0738 49.1413C21.9692 50.7061 21.8728 52.2588 21.7682 53.8236C21.6812 55.1013 21.6912 56.3916 21.4829 57.6404C21.412 58.085 20.7654 58.81 20.4825 58.7601C19.9733 58.6808 19.4598 58.6338 19.1244 57.7221C18.9766 57.3412 18.9387 56.8233 18.9651 56.3664C19.0894 53.2323 19.1287 50.0938 19.4673 46.981C19.5728 46.0674 20.3594 44.8213 21.1294 44.5136C21.7737 44.2619 23.1496 44.9601 23.7126 45.6383C25.1605 47.3521 26.3402 49.3074 27.6257 51.1579C28.0475 51.7586 28.453 52.3834 29.0273 53.2275C29.8468 51.8805 30.5115 50.7633 31.1964 49.6421C34.7394 43.7822 38.2824 37.9222 41.8376 32.0704C42.0862 31.6752 42.3711 31.3044 42.6842 30.9702C43.7695 29.855 45.3264 29.9192 46.0073 31.3098C46.6322 32.5747 47.0944 34.029 47.2009 35.4371C47.5844 40.6364 47.7939 45.8592 48.0641 51.0701C48.0897 51.6324 48.1437 52.1787 48.2007 52.9556C51.8556 50.7405 55.2637 48.5525 58.776 46.5753C62.9696 44.2131 67.2313 41.9847 71.5051 39.7645C72.8027 39.0912 74.2518 38.0101 75.6938 39.2628C77.1358 40.5155 76.5775 42.2319 75.96 43.6446C74.0133 48.1006 71.897 52.4951 69.8574 56.9062C69.5224 57.6124 69.1792 58.3308 69.0852 59.3577C72.1047 58.086 75.1241 56.8142 78.1396 55.5223C82.5736 53.6385 86.9916 51.7264 91.4295 49.8628C92.4873 49.4149 93.6955 48.8221 94.6364 49.9834C95.5933 51.1731 94.9729 52.3553 94.1594 53.3019C90.8362 57.1648 87.4929 61.0317 84.0691 64.8092C81.3 67.8496 78.4021 70.7682 75.6636 74.1809C77.8177 73.6978 79.9439 73.1256 82.1178 72.7437C84.8584 72.2512 87.623 71.8277 90.3908 71.5821C91.2365 71.5013 92.7107 71.9492 92.8741 72.4637C93.1051 73.2171 92.6778 74.5822 92.0483 75.1252C89.7252 77.1121 87.2329 78.9324 84.7289 80.692C81.4696 83.0506 78.1262 85.247 74.2834 87.8455Z" fill="#71286F"/>
</g>
<defs>
<clipPath id="clip0_1_5837">
<rect width="84" height="84" fill="white" transform="translate(46.9302) rotate(33.9654)"/>
</clipPath>
</defs>
</svg>
