<svg width="96" height="42" viewBox="0 0 96 42" fill="none" xmlns="http://www.w3.org/2000/svg">
<path d="M30.2991 12C31.8013 12 33.3035 12 34.8512 12C34.8512 13.3006 34.8512 14.6012 34.8512 15.9413C35.313 15.9337 35.7749 15.926 36.2507 15.9182C38.3215 15.9101 40.4377 15.9992 42.1124 17.3774C43.7602 19.144 43.6593 21.7051 43.6025 23.9536C43.5289 25.6001 43.1925 27.2435 41.9715 28.4348C38.951 30.8712 33.1844 29.7358 30.2991 29.7358C30.2991 23.883 30.2991 18.0302 30.2991 12Z" fill="#722D71"/>
<path d="M52.5675 15.9413C55.2065 15.9413 57.8454 15.9413 60.5644 15.9413C60.6253 16.7948 60.6253 16.7948 60.6874 17.6656C60.7599 18.0289 60.8316 18.3558 60.9412 18.7048C60.968 18.7917 60.9947 18.8785 61.0223 18.9681C61.5586 20.6154 62.4066 21.8826 63.6401 23.0848C63.7237 23.1682 63.8073 23.2516 63.8934 23.3374C65.5991 24.9385 67.9559 25.7398 70.2703 25.7148C72.9558 25.6245 75.4949 24.602 77.3727 22.6558C79.1447 20.7061 79.7467 18.5074 80.0031 15.9413C82.6421 15.9413 85.281 15.9413 88 15.9413C88 17.3232 88 18.7051 88 20.1289C86.4572 20.1289 84.9144 20.1289 83.3249 20.1289C83.2031 20.4947 83.0813 20.8605 82.9558 21.2374C82.8106 21.5667 82.6638 21.8867 82.5021 22.2073C82.4593 22.2923 82.4165 22.3772 82.3723 22.4648C81.1604 24.8083 79.2153 26.7294 76.9273 28.0114C76.8279 28.0681 76.7285 28.1248 76.626 28.1832C73.4595 29.8785 69.7445 30.2465 66.3103 29.2118C64.4888 28.6263 62.9086 27.7392 61.4256 26.5335C61.3362 26.4628 61.2467 26.3922 61.1546 26.3194C60.4478 25.7358 59.8908 25.0415 59.3341 24.3165C59.2592 24.2203 59.1844 24.1241 59.1073 24.0249C58.6527 23.4106 58.288 22.7638 57.9423 22.0841C57.9008 22.0032 57.8592 21.9223 57.8164 21.8389C57.7772 21.7595 57.7381 21.68 57.6977 21.5982C57.6632 21.5286 57.6288 21.4591 57.5933 21.3874C57.4376 20.9808 57.3481 20.5514 57.2426 20.1289C55.6998 20.1289 54.157 20.1289 52.5675 20.1289C52.5675 18.747 52.5675 17.3651 52.5675 15.9413Z" fill="#722C70"/>
<path d="M17.1349 16.0644C18.2868 16.056 19.4386 16.0492 20.5905 16.0452C21.1255 16.0433 21.6604 16.0407 22.1954 16.0365C22.7123 16.0325 23.2292 16.0303 23.7461 16.0293C23.9427 16.0286 24.1392 16.0273 24.3357 16.0253C26.2896 16.0062 26.2896 16.0062 27.2233 16.4339C27.3128 16.4708 27.4022 16.5078 27.4943 16.5458C28.408 16.9334 28.8719 17.5702 29.2764 18.4584C29.8715 20.0353 29.9963 21.6354 29.9916 23.3044C29.9915 23.6098 29.9967 23.9149 30.0021 24.2202C30.0131 25.7041 29.766 26.9842 28.7934 28.1663C27.847 29.1032 26.6372 29.3554 25.3779 29.6125C25.2654 29.6365 25.153 29.6605 25.0372 29.6852C22.7973 29.9699 20.3074 29.8776 18.3652 28.6272C17.3023 27.7887 16.8587 26.7378 16.6428 25.4249C16.516 23.769 16.7566 22.2913 17.838 20.9818C19.3513 19.5053 21.6482 19.4723 23.6247 19.4976C23.7958 19.4988 23.9669 19.5 24.138 19.501C24.5513 19.5038 24.9646 19.5079 25.3779 19.513C25.2255 18.7968 25.2255 18.7968 24.7627 18.2814C23.6736 17.8808 22.4876 17.8935 21.34 17.8729C21.1583 17.869 21.1583 17.869 20.9729 17.8651C20.5907 17.8572 20.2084 17.8499 19.8262 17.8426C19.5651 17.8372 19.3039 17.8319 19.0428 17.8265C18.4069 17.8134 17.7709 17.8009 17.1349 17.7887C17.1349 17.2197 17.1349 16.6506 17.1349 16.0644Z" fill="#722B70"/>
<path d="M8.03059 12C9.49218 12 10.9538 12 12.4597 12C12.4597 13.3413 12.4597 14.6825 12.4597 16.0644C13.3934 16.0644 14.3272 16.0644 15.2893 16.0644C15.2893 16.6335 15.2893 17.2025 15.2893 17.7888C14.3555 17.7888 13.4217 17.7888 12.4597 17.7888C12.4674 18.9141 12.4767 20.0393 12.4887 21.1646C12.4941 21.6872 12.499 22.2097 12.5023 22.7323C12.5055 23.237 12.5105 23.7417 12.5166 24.2464C12.5187 24.4385 12.5201 24.6307 12.5209 24.8228C12.5221 25.0929 12.5255 25.3628 12.5295 25.6329C12.5315 25.863 12.5315 25.863 12.5336 26.0978C12.6024 26.7082 12.7463 27.2243 13.2332 27.6303C13.6245 27.7884 13.9321 27.8181 14.3536 27.8281C14.5015 27.8325 14.6494 27.8369 14.8018 27.8414C15.0317 27.8455 15.0317 27.8455 15.2663 27.8498C15.4219 27.854 15.5776 27.8582 15.738 27.8625C16.1215 27.8727 16.5051 27.8807 16.8887 27.8883C16.8887 28.4979 16.8887 29.1076 16.8887 29.7358C16.112 29.748 15.3354 29.7569 14.5586 29.7628C14.2951 29.7653 14.0315 29.7686 13.768 29.7729C10.3713 29.8269 10.3713 29.8269 9.13017 28.9044C8.72339 28.5052 8.48116 28.0466 8.27665 27.5188C8.21347 27.3724 8.21347 27.3724 8.14903 27.223C7.98056 26.5926 7.99841 25.9889 8.00265 25.3392C8.00262 25.1949 8.00258 25.0506 8.00255 24.902C8.00272 24.4262 8.00463 23.9504 8.00656 23.4746C8.00702 23.1442 8.00738 22.8139 8.00761 22.4836C8.00838 21.7037 8.0104 20.9238 8.01287 20.1439C8.01562 19.2557 8.01697 18.3675 8.01821 17.4793C8.02077 15.6528 8.02529 13.8264 8.03059 12Z" fill="#712C6F"/>
<path d="M61.9178 15.9413C63.1358 15.9413 64.3538 15.9413 65.6087 15.9413C65.6747 16.2436 65.7407 16.5459 65.8086 16.8573C66.1193 18.1523 66.7046 19.1215 67.8232 19.8826C68.982 20.54 70.128 20.6839 71.4296 20.406C72.879 19.9141 73.7788 19.1729 74.4669 17.7888C74.6965 17.1538 74.7498 16.631 74.8359 15.9413C76.0539 15.9413 77.2719 15.9413 78.5268 15.9413C78.5268 18.3289 77.739 20.1844 76.1244 21.9249C74.4547 23.5594 72.2989 24.3873 69.9784 24.3682C67.6396 24.2866 65.5868 23.2601 63.9786 21.5607C63.1188 20.5435 62.5931 19.3988 62.1793 18.1429C62.1528 18.065 62.1262 17.9871 62.0989 17.9068C61.8799 17.1983 61.9178 16.7451 61.9178 15.9413Z" fill="#722C70"/>
<path d="M44.2015 15.9413C45.6631 15.9413 47.1246 15.9413 48.6305 15.9413C48.6305 20.4935 48.6305 25.0456 48.6305 29.7358C47.1689 29.7358 45.7073 29.7358 44.2015 29.7358C44.2015 25.1836 44.2015 20.6314 44.2015 15.9413Z" fill="#712B6F"/>
<path d="M38.0575 18.4662C38.7483 19.0547 39.019 19.8587 39.1571 20.7447C39.1878 21.2888 39.1925 21.8312 39.1892 22.3759C39.1879 22.6288 39.1892 22.8817 39.1907 23.1346C39.1921 24.3827 39.156 25.6642 38.5419 26.7798C37.9904 27.3174 37.4802 27.5296 36.7196 27.5727C36.0545 27.5558 35.5713 27.3777 35.0971 26.903C34.9127 26.585 34.8098 26.2749 34.728 25.9176C34.7069 25.8322 34.6859 25.7467 34.6642 25.6586C34.5871 25.1939 34.585 24.7352 34.5843 24.2655C34.5839 24.1657 34.5835 24.0659 34.5831 23.9631C34.5825 23.7521 34.5822 23.5411 34.5822 23.3302C34.5819 23.0115 34.5797 22.6929 34.5774 22.3742C34.5669 19.4496 34.5669 19.4496 35.4004 18.5576C36.0332 18.0449 37.355 18.1184 38.0575 18.4662Z" fill="#FCFCFC"/>
<path d="M24.4345 21.4279C25.0217 21.6993 25.1852 22.1636 25.4 22.729C25.5738 23.3418 25.5672 23.9377 25.5548 24.5705C25.5557 24.6966 25.5565 24.8228 25.5574 24.9527C25.5495 25.9117 25.4491 26.7584 24.832 27.5188C24.1754 28.0318 23.3485 27.9483 22.5483 27.8882C22.0215 27.7032 21.7242 27.5082 21.441 27.0261C21.2236 26.5618 21.1634 26.1957 21.1622 25.6843C21.1619 25.5462 21.1616 25.4082 21.1613 25.2659C21.1622 25.1228 21.1632 24.9797 21.1642 24.8322C21.1632 24.6905 21.1623 24.5488 21.1613 24.4028C21.1659 22.3749 21.1659 22.3749 21.9331 21.6068C22.6272 21.1552 23.6574 21.2454 24.4345 21.4279Z" fill="#FCFCFC"/>
<path d="M47.3618 12.6851C47.9127 12.9556 48.2511 13.2876 48.5075 13.8474C48.584 14.1435 48.6117 14.4022 48.6305 14.7096C48.0621 14.7096 47.4937 14.7096 46.9081 14.7096C46.8675 14.5877 46.8269 14.4657 46.7851 14.3401C46.5415 14.3401 46.2979 14.3401 46.0469 14.3401C46.0063 14.462 45.9657 14.584 45.9239 14.7096C45.3555 14.7096 44.7871 14.7096 44.2015 14.7096C44.2552 14.0373 44.3785 13.6258 44.8166 13.1085C45.631 12.4215 46.3742 12.3086 47.3618 12.6851Z" fill="#742D71"/>
</svg>
